<?xml version="1.0" encoding="UTF-8"?>
<svg xmlns="http://www.w3.org/2000/svg" xmlns:xlink="http://www.w3.org/1999/xlink" width="96px" height="96px" viewBox="0 0 96 96" version="1.1">
<defs>
<clipPath id="clip1">
  <path d="M 37.375 28.160156 L 96 28.160156 L 96 83.199219 L 37.375 83.199219 Z M 37.375 28.160156 "/>
</clipPath>
<clipPath id="clip2">
  <path d="M 0.933594 0.933594 L 95.011719 0.933594 L 95.011719 95.011719 L 0.933594 95.011719 Z M 0.933594 0.933594 "/>
</clipPath>
</defs>
<g id="surface1">
<rect x="0" y="0" width="96" height="96" style="fill:rgb(100%,100%,100%);fill-opacity:1;stroke:none;"/>
<g clip-path="url(#clip1)" clip-rule="nonzero">
<path style=" stroke:none;fill-rule:nonzero;fill:rgb(0%,0%,0%);fill-opacity:1;" d="M 106.554688 75.542969 C 103.953125 77.769531 101.253906 79.585938 98.460938 80.992188 C 95.667969 82.402344 92.535156 83.109375 89.0625 83.109375 C 86.839844 83.109375 84.753906 82.742188 82.800781 82.007812 C 80.847656 81.277344 78.960938 80.371094 77.144531 79.285156 C 75.328125 78.199219 73.578125 77.019531 71.894531 75.746094 C 70.214844 74.46875 68.507812 73.289062 66.773438 72.203125 C 65.035156 71.121094 63.257812 70.214844 61.441406 69.480469 C 59.625 68.75 57.714844 68.386719 55.707031 68.386719 C 53.429688 68.386719 51.242188 68.777344 49.15625 69.566406 C 47.066406 70.351562 45.128906 71.449219 43.339844 72.855469 L 42.933594 72.125 C 44.667969 71.042969 46.363281 70.121094 48.015625 69.359375 C 49.671875 68.601562 51.53125 68.140625 53.59375 67.976562 C 51.257812 67.488281 49.117188 66.648438 47.164062 65.457031 C 45.210938 64.261719 43.53125 62.785156 42.121094 61.019531 C 40.710938 59.257812 39.597656 57.292969 38.785156 55.125 C 37.96875 52.953125 37.5625 50.703125 37.5625 48.367188 C 37.5625 45.546875 38.09375 42.917969 39.148438 40.476562 C 40.207031 38.035156 41.644531 35.910156 43.460938 34.09375 C 45.277344 32.273438 47.40625 30.851562 49.847656 29.820312 C 52.289062 28.789062 54.921875 28.273438 57.738281 28.273438 C 60.507812 28.273438 63.113281 28.804688 65.550781 29.859375 C 67.992188 30.917969 70.121094 32.355469 71.9375 34.171875 C 73.753906 35.988281 75.179688 38.117188 76.207031 40.5625 C 77.238281 43 77.757812 45.605469 77.757812 48.367188 C 77.757812 50.863281 77.320312 53.25 76.453125 55.527344 C 75.585938 57.808594 74.378906 59.839844 72.832031 61.632812 C 71.289062 63.421875 69.457031 64.886719 67.339844 66.023438 C 65.226562 67.164062 62.921875 67.894531 60.425781 68.222656 C 62.320312 68.4375 64.179688 68.898438 65.996094 69.601562 C 67.8125 70.308594 69.617188 71.136719 71.40625 72.085938 C 73.199219 73.035156 74.976562 74.011719 76.738281 75.011719 C 78.503906 76.019531 80.265625 76.953125 82.027344 77.820312 C 83.789062 78.691406 85.566406 79.394531 87.355469 79.9375 C 89.144531 80.476562 90.988281 80.75 92.886719 80.75 C 95.328125 80.75 97.699219 80.179688 100.003906 79.039062 C 102.308594 77.902344 104.332031 76.546875 106.066406 74.972656 Z M 43.339844 47.070312 C 43.339844 49.183594 43.679688 51.460938 44.355469 53.902344 C 45.035156 56.339844 46.027344 58.578125 47.328125 60.613281 C 48.628906 62.648438 50.230469 64.34375 52.128906 65.699219 C 54.027344 67.054688 56.222656 67.734375 58.714844 67.734375 C 61.101562 67.734375 63.148438 67.164062 64.859375 66.023438 C 66.570312 64.886719 67.964844 63.449219 69.046875 61.710938 C 70.132812 59.976562 70.945312 58.039062 71.488281 55.898438 C 72.03125 53.753906 72.304688 51.675781 72.304688 49.667969 C 72.304688 47.285156 71.949219 44.871094 71.242188 42.433594 C 70.539062 39.992188 69.496094 37.75 68.113281 35.71875 C 66.730469 33.683594 65.023438 32.027344 62.988281 30.753906 C 60.953125 29.480469 58.609375 28.839844 55.953125 28.839844 C 55.300781 28.839844 54.636719 28.949219 53.957031 29.167969 C 53.277344 29.386719 52.640625 29.628906 52.042969 29.902344 C 50.472656 30.605469 49.132812 31.609375 48.019531 32.914062 C 46.90625 34.214844 46.011719 35.640625 45.332031 37.183594 C 44.652344 38.730469 44.152344 40.355469 43.828125 42.066406 C 43.503906 43.773438 43.339844 45.441406 43.339844 47.070312 Z M 43.339844 47.070312 "/>
</g>
<path style=" stroke:none;fill-rule:nonzero;fill:rgb(0%,0%,0%);fill-opacity:1;" d="M 62.398438 59.394531 C 62.398438 62.960938 61.828125 66.203125 60.6875 69.121094 C 59.546875 72.042969 57.925781 74.539062 55.820312 76.605469 C 53.71875 78.671875 51.207031 80.273438 48.285156 81.414062 C 45.367188 82.554688 42.125 83.125 38.5625 83.125 C 35.355469 83.125 32.289062 82.628906 29.367188 81.628906 C 26.445312 80.632812 23.878906 79.1875 21.671875 77.296875 C 19.460938 75.410156 17.699219 73.109375 16.378906 70.402344 C 15.058594 67.695312 14.402344 64.632812 14.402344 61.214844 C 14.402344 57.933594 14.972656 55.121094 16.113281 52.769531 C 17.253906 50.417969 18.804688 48.476562 20.761719 46.945312 C 22.722656 45.414062 25.019531 44.273438 27.65625 43.523438 C 30.296875 42.773438 33.109375 42.398438 36.101562 42.398438 L 36.101562 42.824219 C 33.535156 42.96875 31.167969 43.59375 28.992188 44.699219 C 26.820312 45.800781 24.96875 47.246094 23.433594 49.027344 C 21.902344 50.808594 20.710938 52.839844 19.855469 55.121094 C 19 57.402344 18.574219 59.824219 18.574219 62.390625 C 18.574219 65.308594 19.054688 67.964844 20.015625 70.351562 C 20.976562 72.738281 22.3125 74.789062 24.023438 76.5 C 25.734375 78.207031 27.800781 79.523438 30.222656 80.449219 C 32.644531 81.378906 35.320312 81.84375 38.242188 81.84375 C 44.011719 81.84375 48.519531 80.148438 51.761719 76.765625 C 55.003906 73.382812 56.625 68.804688 56.625 63.03125 C 56.625 59.964844 55.929688 57.171875 54.542969 54.640625 C 53.152344 52.113281 51.40625 49.722656 49.300781 47.476562 C 47.199219 45.234375 44.921875 43.078125 42.460938 41.011719 C 40.003906 38.945312 37.722656 36.878906 35.621094 34.808594 C 33.519531 32.742188 31.773438 30.605469 30.382812 28.398438 C 28.992188 26.1875 28.296875 23.800781 28.296875 21.234375 C 28.296875 19.382812 28.636719 17.710938 29.3125 16.214844 C 29.992188 14.714844 30.917969 13.46875 32.09375 12.46875 C 33.269531 11.472656 34.640625 10.707031 36.210938 10.175781 C 37.777344 9.636719 39.453125 9.371094 41.234375 9.371094 C 41.945312 9.371094 42.640625 9.441406 43.316406 9.585938 C 43.996094 9.726562 44.652344 9.867188 45.292969 10.011719 L 47.964844 10.867188 C 49.390625 11.296875 50.746094 11.511719 52.03125 11.511719 C 53.027344 11.511719 53.8125 11.117188 54.382812 10.335938 L 53.632812 22.730469 C 53.347656 21.304688 52.847656 19.847656 52.132812 18.351562 C 51.421875 16.855469 50.515625 15.5 49.410156 14.289062 C 48.304688 13.078125 47.058594 12.0625 45.671875 11.242188 C 44.28125 10.421875 42.765625 10.011719 41.125 10.011719 C 38.488281 10.011719 36.226562 10.722656 34.339844 12.148438 C 32.449219 13.574219 31.507812 15.710938 31.507812 18.5625 C 31.507812 20.773438 32.269531 22.894531 33.800781 24.925781 C 35.335938 26.957031 37.242188 28.949219 39.523438 30.910156 C 41.804688 32.871094 44.28125 34.867188 46.953125 36.898438 C 49.625 38.929688 52.101562 41.082031 54.382812 43.363281 C 56.660156 45.640625 58.566406 48.101562 60.097656 50.738281 C 61.632812 53.375 62.398438 56.261719 62.398438 59.394531 Z M 62.398438 59.394531 "/>
<g clip-path="url(#clip2)" clip-rule="nonzero">
<path style=" stroke:none;fill-rule:nonzero;fill:rgb(0%,0%,0%);fill-opacity:1;" d="M 47.976562 95.023438 C 22.035156 95.023438 0.933594 73.917969 0.933594 47.976562 C 0.933594 22.035156 22.035156 0.933594 47.976562 0.933594 C 73.917969 0.933594 95.023438 22.035156 95.023438 47.976562 C 95.023438 73.917969 73.917969 95.023438 47.976562 95.023438 Z M 47.976562 1.59375 C 22.402344 1.59375 1.59375 22.402344 1.59375 47.976562 C 1.59375 73.554688 22.402344 94.363281 47.976562 94.363281 C 73.554688 94.363281 94.363281 73.554688 94.363281 47.976562 C 94.363281 22.402344 73.554688 1.59375 47.976562 1.59375 Z M 47.976562 1.59375 "/>
<path style=" stroke:none;fill-rule:nonzero;fill:rgb(0%,0%,0%);fill-opacity:1;" d="M 47.976562 95.023438 C 22.035156 95.023438 0.933594 73.917969 0.933594 47.976562 C 0.933594 22.035156 22.035156 0.933594 47.976562 0.933594 C 73.917969 0.933594 95.023438 22.035156 95.023438 47.976562 C 95.023438 73.917969 73.917969 95.023438 47.976562 95.023438 Z M 47.976562 1.59375 C 22.402344 1.59375 1.59375 22.402344 1.59375 47.976562 C 1.59375 73.554688 22.402344 94.363281 47.976562 94.363281 C 73.554688 94.363281 94.363281 73.554688 94.363281 47.976562 C 94.363281 22.402344 73.554688 1.59375 47.976562 1.59375 Z M 47.976562 1.59375 "/>
</g>
</g>
</svg>
