<svg xmlns="http://www.w3.org/2000/svg" xmlns:xlink="http://www.w3.org/1999/xlink" width="500" zoomAndPan="magnify" viewBox="0 0 375 374.999991" height="500" preserveAspectRatio="xMidYMid meet" version="1.0"><defs><g/><clipPath id="5fc2615343"><path d="M 15 82 L 277 82 L 277 347 L 15 347 Z M 15 82 " clip-rule="nonzero"/></clipPath><clipPath id="77a1bdf596"><rect x="0" width="277" y="0" height="356"/></clipPath><clipPath id="d4af03bd94"><rect x="0" width="250" y="0" height="375"/></clipPath><clipPath id="3a059aa31a"><path d="M 0 215.996094 L 373.132812 215.996094 L 373.132812 250.609375 L 0 250.609375 Z M 0 215.996094 " clip-rule="nonzero"/></clipPath><clipPath id="8a7a7f18fb"><path d="M 0 0.996094 L 373.132812 0.996094 L 373.132812 35.609375 L 0 35.609375 Z M 0 0.996094 " clip-rule="nonzero"/></clipPath><clipPath id="5e33dac6dd"><rect x="0" width="374" y="0" height="36"/></clipPath></defs><rect x="-37.5" width="450" fill="#ffffff" y="-37.499999" height="449.999989" fill-opacity="1"/><rect x="-37.5" width="450" fill="#ffffff" y="-37.499999" height="449.999989" fill-opacity="1"/><g transform="matrix(1, 0, 0, 1, 98, 19)"><g clip-path="url(#77a1bdf596)"><g clip-path="url(#5fc2615343)"><g fill="#000000" fill-opacity="1"><g transform="translate(0.426409, 274.735987)"><g><path d="M 347.671875 35.3125 C 335.117188 46.039062 322.101562 54.804688 308.625 61.609375 C 295.15625 68.410156 280.046875 71.8125 263.296875 71.8125 C 252.578125 71.8125 242.507812 70.046875 233.09375 66.515625 C 223.675781 62.984375 214.582031 58.597656 205.8125 53.359375 C 197.050781 48.128906 188.613281 42.441406 180.5 36.296875 C 172.394531 30.148438 164.15625 24.457031 155.78125 19.21875 C 147.414062 13.988281 138.847656 9.609375 130.078125 6.078125 C 121.316406 2.546875 112.097656 0.78125 102.421875 0.78125 C 91.429688 0.78125 80.898438 2.675781 70.828125 6.46875 C 60.753906 10.269531 51.398438 15.566406 42.765625 22.359375 L 40.8125 18.828125 C 49.1875 13.597656 57.359375 9.148438 65.328125 5.484375 C 73.304688 1.828125 82.269531 -0.390625 92.21875 -1.171875 C 80.96875 -3.523438 70.632812 -7.578125 61.21875 -13.328125 C 51.800781 -19.085938 43.691406 -26.21875 36.890625 -34.71875 C 30.085938 -43.226562 24.722656 -52.710938 20.796875 -63.171875 C 16.867188 -73.640625 14.90625 -84.5 14.90625 -95.75 C 14.90625 -109.351562 17.457031 -122.039062 22.5625 -133.8125 C 27.664062 -145.582031 34.597656 -155.847656 43.359375 -164.609375 C 52.117188 -173.378906 62.382812 -180.25 74.15625 -185.21875 C 85.9375 -190.1875 98.628906 -192.671875 112.234375 -192.671875 C 125.566406 -192.671875 138.117188 -190.117188 149.890625 -185.015625 C 161.671875 -179.921875 171.941406 -172.988281 180.703125 -164.21875 C 189.460938 -155.457031 196.328125 -145.191406 201.296875 -133.421875 C 206.273438 -121.648438 208.765625 -109.09375 208.765625 -95.75 C 208.765625 -83.71875 206.671875 -72.207031 202.484375 -61.21875 C 198.296875 -50.226562 192.472656 -40.414062 185.015625 -31.78125 C 177.566406 -23.144531 168.738281 -16.082031 158.53125 -10.59375 C 148.332031 -5.101562 137.210938 -1.570312 125.171875 0 C 134.328125 1.039062 143.285156 3.257812 152.046875 6.65625 C 160.816406 10.0625 169.519531 14.050781 178.15625 18.625 C 186.789062 23.207031 195.359375 27.921875 203.859375 32.765625 C 212.359375 37.609375 220.859375 42.117188 229.359375 46.296875 C 237.859375 50.484375 246.425781 53.882812 255.0625 56.5 C 263.695312 59.125 272.59375 60.4375 281.75 60.4375 C 293.519531 60.4375 304.960938 57.6875 316.078125 52.1875 C 327.203125 46.695312 336.945312 40.15625 345.3125 32.5625 Z M 42.765625 -102.03125 C 42.765625 -91.820312 44.398438 -80.832031 47.671875 -69.0625 C 50.941406 -57.289062 55.71875 -46.5 62 -36.6875 C 68.28125 -26.875 76 -18.695312 85.15625 -12.15625 C 94.3125 -5.625 104.90625 -2.359375 116.9375 -2.359375 C 128.445312 -2.359375 138.320312 -5.101562 146.5625 -10.59375 C 154.800781 -16.082031 161.535156 -23.015625 166.765625 -31.390625 C 172.003906 -39.765625 175.929688 -49.117188 178.546875 -59.453125 C 181.160156 -69.785156 182.46875 -79.789062 182.46875 -89.46875 C 182.46875 -100.976562 180.765625 -112.617188 177.359375 -124.390625 C 173.960938 -136.160156 168.925781 -146.953125 162.25 -156.765625 C 155.582031 -166.578125 147.34375 -174.554688 137.53125 -180.703125 C 127.726562 -186.847656 116.414062 -189.921875 103.59375 -189.921875 C 100.457031 -189.921875 97.253906 -189.394531 93.984375 -188.34375 C 90.710938 -187.300781 87.640625 -186.128906 84.765625 -184.828125 C 77.171875 -181.421875 70.691406 -176.578125 65.328125 -170.296875 C 59.972656 -164.023438 55.660156 -157.160156 52.390625 -149.703125 C 49.117188 -142.242188 46.695312 -134.394531 45.125 -126.15625 C 43.550781 -117.914062 42.765625 -109.875 42.765625 -102.03125 Z M 42.765625 -102.03125 "/></g></g></g></g></g></g><g transform="matrix(1, 0, 0, 1, 0, 0)"><g clip-path="url(#d4af03bd94)"><g fill="#000000" fill-opacity="1"><g transform="translate(-8.672022, 268.700975)"><g><path d="M 241.78125 -17.53125 C 241.78125 -0.34375 239.03125 15.289062 233.53125 29.375 C 228.03125 43.46875 220.210938 55.5 210.078125 65.46875 C 199.941406 75.4375 187.828125 83.171875 173.734375 88.671875 C 159.640625 94.171875 144.003906 96.921875 126.828125 96.921875 C 111.359375 96.921875 96.578125 94.515625 82.484375 89.703125 C 68.390625 84.890625 56.015625 77.925781 45.359375 68.8125 C 34.710938 59.707031 26.207031 48.625 19.84375 35.5625 C 13.488281 22.507812 10.3125 7.734375 10.3125 -8.765625 C 10.3125 -24.578125 13.0625 -38.148438 18.5625 -49.484375 C 24.0625 -60.828125 31.535156 -70.191406 40.984375 -77.578125 C 50.429688 -84.972656 61.515625 -90.472656 74.234375 -94.078125 C 86.953125 -97.691406 100.53125 -99.5 114.96875 -99.5 L 114.96875 -97.4375 C 102.59375 -96.75 91.160156 -93.738281 80.671875 -88.40625 C 70.191406 -83.082031 61.257812 -76.125 53.875 -67.53125 C 46.488281 -58.9375 40.734375 -49.140625 36.609375 -38.140625 C 32.484375 -27.148438 30.421875 -15.46875 30.421875 -3.09375 C 30.421875 11 32.738281 23.800781 37.375 35.3125 C 42.007812 46.820312 48.453125 56.703125 56.703125 64.953125 C 64.953125 73.203125 74.921875 79.5625 86.609375 84.03125 C 98.296875 88.5 111.1875 90.734375 125.28125 90.734375 C 153.113281 90.734375 174.847656 82.570312 190.484375 66.25 C 206.128906 49.925781 213.953125 27.84375 213.953125 0 C 213.953125 -14.78125 210.597656 -28.269531 203.890625 -40.46875 C 197.191406 -52.664062 188.769531 -64.175781 178.625 -75 C 168.488281 -85.832031 157.492188 -96.234375 145.640625 -106.203125 C 133.785156 -116.171875 122.785156 -126.132812 112.640625 -136.09375 C 102.503906 -146.0625 94.082031 -156.375 87.375 -167.03125 C 80.675781 -177.6875 77.328125 -189.203125 77.328125 -201.578125 C 77.328125 -210.503906 78.957031 -218.578125 82.21875 -225.796875 C 85.488281 -233.015625 89.957031 -239.03125 95.625 -243.84375 C 101.300781 -248.65625 107.921875 -252.347656 115.484375 -254.921875 C 123.046875 -257.503906 131.117188 -258.796875 139.703125 -258.796875 C 143.140625 -258.796875 146.488281 -258.453125 149.75 -257.765625 C 153.019531 -257.078125 156.203125 -256.390625 159.296875 -255.703125 L 172.1875 -251.578125 C 179.0625 -249.515625 185.59375 -248.484375 191.78125 -248.484375 C 196.59375 -248.484375 200.375 -250.375 203.125 -254.15625 L 199.515625 -194.359375 C 198.140625 -201.234375 195.734375 -208.273438 192.296875 -215.484375 C 188.859375 -222.703125 184.472656 -229.234375 179.140625 -235.078125 C 173.816406 -240.921875 167.800781 -245.816406 161.09375 -249.765625 C 154.394531 -253.722656 147.09375 -255.703125 139.1875 -255.703125 C 126.476562 -255.703125 115.566406 -252.265625 106.453125 -245.390625 C 97.347656 -238.515625 92.796875 -228.207031 92.796875 -214.46875 C 92.796875 -203.8125 96.488281 -193.582031 103.875 -183.78125 C 111.269531 -173.988281 120.460938 -164.363281 131.453125 -154.90625 C 142.453125 -145.457031 154.394531 -135.835938 167.28125 -126.046875 C 180.175781 -116.253906 192.117188 -105.859375 203.109375 -94.859375 C 214.109375 -83.859375 223.300781 -72 230.6875 -59.28125 C 238.082031 -46.570312 241.78125 -32.65625 241.78125 -17.53125 Z M 241.78125 -17.53125 "/></g></g></g></g></g><g clip-path="url(#3a059aa31a)"><g transform="matrix(1, 0, 0, 1, 0, 215)"><g clip-path="url(#5e33dac6dd)"><g clip-path="url(#8a7a7f18fb)"><path fill="#ffffff" d="M -3.738281 0.996094 L 373.074219 0.996094 L 373.074219 35.609375 L -3.738281 35.609375 Z M -3.738281 0.996094 " fill-opacity="1" fill-rule="nonzero"/></g></g></g></g></svg>