<svg xmlns="http://www.w3.org/2000/svg" xmlns:xlink="http://www.w3.org/1999/xlink" width="500" zoomAndPan="magnify" viewBox="0 0 375 374.999991" height="500" preserveAspectRatio="xMidYMid meet" version="1.0"><defs><g/><clipPath id="f07726bab2"><rect x="0" width="245" y="0" height="276"/></clipPath><clipPath id="4ce1599427"><rect x="0" width="165" y="0" height="327"/></clipPath><clipPath id="5ef0492769"><path d="M 41.109375 196.671875 L 278.621094 196.671875 L 278.621094 228.132812 L 41.109375 228.132812 Z M 41.109375 196.671875 " clip-rule="nonzero"/></clipPath><clipPath id="b2ce4d3ec7"><path d="M 0.109375 0.671875 L 237.621094 0.671875 L 237.621094 32.132812 L 0.109375 32.132812 Z M 0.109375 0.671875 " clip-rule="nonzero"/></clipPath><clipPath id="8a1f08414d"><rect x="0" width="238" y="0" height="33"/></clipPath></defs><g transform="matrix(1, 0, 0, 1, 130, 82)"><g clip-path="url(#f07726bab2)"><g fill="#000000" fill-opacity="1"><g transform="translate(0.732789, 192.984331)"><g><path d="M 243.078125 24.6875 C 234.296875 32.1875 225.195312 38.3125 215.78125 43.0625 C 206.363281 47.820312 195.800781 50.203125 184.09375 50.203125 C 176.59375 50.203125 169.550781 48.96875 162.96875 46.5 C 156.382812 44.03125 150.023438 40.96875 143.890625 37.3125 C 137.765625 33.65625 131.867188 29.675781 126.203125 25.375 C 120.535156 21.082031 114.773438 17.101562 108.921875 13.4375 C 103.066406 9.78125 97.078125 6.71875 90.953125 4.25 C 84.828125 1.78125 78.378906 0.546875 71.609375 0.546875 C 63.921875 0.546875 56.554688 1.867188 49.515625 4.515625 C 42.472656 7.171875 35.9375 10.878906 29.90625 15.640625 L 28.53125 13.171875 C 34.382812 9.515625 40.097656 6.40625 45.671875 3.84375 C 51.253906 1.28125 57.519531 -0.273438 64.46875 -0.828125 C 56.601562 -2.472656 49.378906 -5.304688 42.796875 -9.328125 C 36.210938 -13.347656 30.539062 -18.332031 25.78125 -24.28125 C 21.03125 -30.226562 17.28125 -36.859375 14.53125 -44.171875 C 11.789062 -51.484375 10.421875 -59.070312 10.421875 -66.9375 C 10.421875 -76.445312 12.203125 -85.316406 15.765625 -93.546875 C 19.335938 -101.785156 24.1875 -108.96875 30.3125 -115.09375 C 36.4375 -121.21875 43.613281 -126.015625 51.84375 -129.484375 C 60.082031 -132.960938 68.957031 -134.703125 78.46875 -134.703125 C 87.789062 -134.703125 96.566406 -132.921875 104.796875 -129.359375 C 113.035156 -125.796875 120.21875 -120.945312 126.34375 -114.8125 C 132.46875 -108.6875 137.265625 -101.507812 140.734375 -93.28125 C 144.210938 -85.050781 145.953125 -76.269531 145.953125 -66.9375 C 145.953125 -58.53125 144.488281 -50.484375 141.5625 -42.796875 C 138.644531 -35.117188 134.578125 -28.257812 129.359375 -22.21875 C 124.148438 -16.1875 117.976562 -11.25 110.84375 -7.40625 C 103.707031 -3.5625 95.929688 -1.09375 87.515625 0 C 93.921875 0.726562 100.1875 2.28125 106.3125 4.65625 C 112.4375 7.039062 118.515625 9.832031 124.546875 13.03125 C 130.585938 16.226562 136.582031 19.519531 142.53125 22.90625 C 148.476562 26.289062 154.421875 29.445312 160.359375 32.375 C 166.304688 35.300781 172.296875 37.675781 178.328125 39.5 C 184.367188 41.332031 190.585938 42.25 196.984375 42.25 C 205.222656 42.25 213.226562 40.328125 221 36.484375 C 228.769531 32.648438 235.582031 28.078125 241.4375 22.765625 Z M 29.90625 -71.328125 C 29.90625 -64.203125 31.046875 -56.519531 33.328125 -48.28125 C 35.617188 -40.050781 38.957031 -32.503906 43.34375 -25.640625 C 47.738281 -18.785156 53.132812 -13.070312 59.53125 -8.5 C 65.9375 -3.925781 73.347656 -1.640625 81.765625 -1.640625 C 89.804688 -1.640625 96.707031 -3.5625 102.46875 -7.40625 C 108.226562 -11.25 112.9375 -16.097656 116.59375 -21.953125 C 120.257812 -27.804688 123.003906 -34.34375 124.828125 -41.5625 C 126.660156 -48.789062 127.578125 -55.785156 127.578125 -62.546875 C 127.578125 -70.597656 126.382812 -78.738281 124 -86.96875 C 121.625 -95.195312 118.101562 -102.738281 113.4375 -109.59375 C 108.78125 -116.457031 103.019531 -122.039062 96.15625 -126.34375 C 89.300781 -130.644531 81.394531 -132.796875 72.4375 -132.796875 C 70.238281 -132.796875 67.992188 -132.425781 65.703125 -131.6875 C 63.421875 -130.957031 61.273438 -130.132812 59.265625 -129.21875 C 53.960938 -126.84375 49.4375 -123.457031 45.6875 -119.0625 C 41.9375 -114.675781 38.914062 -109.875 36.625 -104.65625 C 34.34375 -99.445312 32.648438 -93.960938 31.546875 -88.203125 C 30.453125 -82.441406 29.90625 -76.816406 29.90625 -71.328125 Z M 29.90625 -71.328125 "/></g></g></g></g></g><g transform="matrix(1, 0, 0, 1, 36, 0)"><g clip-path="url(#4ce1599427)"><g fill="#000000" fill-opacity="1"><g transform="translate(2.002132, 228.387203)"><g><path d="M 152.375 -11.046875 C 152.375 -0.210938 150.640625 9.640625 147.171875 18.515625 C 143.710938 27.398438 138.785156 34.984375 132.390625 41.265625 C 126.003906 47.546875 118.367188 52.414062 109.484375 55.875 C 100.609375 59.34375 90.753906 61.078125 79.921875 61.078125 C 70.171875 61.078125 60.851562 59.5625 51.96875 56.53125 C 43.09375 53.5 35.296875 49.113281 28.578125 43.375 C 21.867188 37.632812 16.507812 30.648438 12.5 22.421875 C 8.5 14.191406 6.5 4.878906 6.5 -5.515625 C 6.5 -15.484375 8.226562 -24.039062 11.6875 -31.1875 C 15.15625 -38.332031 19.867188 -44.234375 25.828125 -48.890625 C 31.785156 -53.546875 38.769531 -57.007812 46.78125 -59.28125 C 54.800781 -61.5625 63.359375 -62.703125 72.453125 -62.703125 L 72.453125 -61.40625 C 64.648438 -60.96875 57.445312 -59.070312 50.84375 -55.71875 C 44.238281 -52.363281 38.609375 -47.976562 33.953125 -42.5625 C 29.296875 -37.144531 25.664062 -30.96875 23.0625 -24.03125 C 20.46875 -17.101562 19.171875 -9.742188 19.171875 -1.953125 C 19.171875 6.929688 20.628906 15 23.546875 22.25 C 26.472656 29.507812 30.535156 35.738281 35.734375 40.9375 C 40.929688 46.132812 47.210938 50.140625 54.578125 52.953125 C 61.941406 55.773438 70.066406 57.1875 78.953125 57.1875 C 96.492188 57.1875 110.191406 52.039062 120.046875 41.75 C 129.898438 31.457031 134.828125 17.539062 134.828125 0 C 134.828125 -9.3125 132.710938 -17.8125 128.484375 -25.5 C 124.265625 -33.1875 118.957031 -40.441406 112.5625 -47.265625 C 106.175781 -54.085938 99.25 -60.640625 91.78125 -66.921875 C 84.3125 -73.203125 77.378906 -79.484375 70.984375 -85.765625 C 64.597656 -92.046875 59.289062 -98.546875 55.0625 -105.265625 C 50.84375 -111.984375 48.734375 -119.238281 48.734375 -127.03125 C 48.734375 -132.664062 49.757812 -137.753906 51.8125 -142.296875 C 53.875 -146.847656 56.691406 -150.640625 60.265625 -153.671875 C 63.835938 -156.703125 68.003906 -159.03125 72.765625 -160.65625 C 77.535156 -162.28125 82.628906 -163.09375 88.046875 -163.09375 C 90.210938 -163.09375 92.320312 -162.875 94.375 -162.4375 C 96.4375 -162.007812 98.441406 -161.578125 100.390625 -161.140625 L 108.515625 -158.546875 C 112.847656 -157.242188 116.960938 -156.59375 120.859375 -156.59375 C 123.890625 -156.59375 126.269531 -157.785156 128 -160.171875 L 125.734375 -122.484375 C 124.867188 -126.816406 123.351562 -131.253906 121.1875 -135.796875 C 119.019531 -140.347656 116.253906 -144.460938 112.890625 -148.140625 C 109.535156 -151.828125 105.742188 -154.914062 101.515625 -157.40625 C 97.296875 -159.894531 92.695312 -161.140625 87.71875 -161.140625 C 79.707031 -161.140625 72.832031 -158.972656 67.09375 -154.640625 C 61.351562 -150.316406 58.484375 -143.820312 58.484375 -135.15625 C 58.484375 -128.4375 60.8125 -121.988281 65.46875 -115.8125 C 70.125 -109.644531 75.914062 -103.582031 82.84375 -97.625 C 89.78125 -91.664062 97.304688 -85.597656 105.421875 -79.421875 C 113.546875 -73.253906 121.070312 -66.707031 128 -59.78125 C 134.9375 -52.851562 140.734375 -45.378906 145.390625 -37.359375 C 150.046875 -29.347656 152.375 -20.578125 152.375 -11.046875 Z M 152.375 -11.046875 "/></g></g></g></g></g><g clip-path="url(#5ef0492769)"><g transform="matrix(1, 0, 0, 1, 41, 196)"><g clip-path="url(#8a1f08414d)"><g clip-path="url(#b2ce4d3ec7)"><path fill="#ffffff" d="M 0.109375 0.671875 L 237.675781 0.671875 L 237.675781 32.132812 L 0.109375 32.132812 Z M 0.109375 0.671875 " fill-opacity="1" fill-rule="nonzero"/></g></g></g></g></svg>